<svg width="86" height="84" viewBox="0 0 86 84" fill="none" xmlns="http://www.w3.org/2000/svg">
<ellipse cx="43.0061" cy="42" rx="42.936" ry="42" fill="url(#paint0_linear_501_4829)"/>
<path fill-rule="evenodd" clip-rule="evenodd" d="M36.2747 24.4008C28.8711 26.9676 23.5684 33.878 23.5684 42C23.5684 43.1508 23.6748 44.2774 23.8787 45.3707L40.8036 40.9345L36.2747 24.4008ZM39.1773 23.6418L43.8306 40.6295L43.8426 40.6733C43.8942 40.8606 43.9667 41.1243 43.9991 41.3659C44.0399 41.6702 44.0514 42.1533 43.7673 42.6454C43.4832 43.1376 43.0592 43.3691 42.7753 43.486C42.5498 43.5788 42.2852 43.6478 42.0972 43.6969L42.0972 43.6969L42.0533 43.7083L24.6696 48.2647C27.3015 55.4926 34.3586 60.6666 42.651 60.6666C53.1901 60.6666 61.7337 52.3093 61.7337 42C61.7337 31.6907 53.1901 23.3333 42.651 23.3333C41.4647 23.3333 40.3037 23.4392 39.1773 23.6418Z" fill="#DA001A" fill-opacity="0.74"/>
<path d="M37 21.3695C36.7497 20.456 36.6246 19.9992 36.2393 19.7972C35.854 19.5953 35.4315 19.7438 34.5865 20.0407C32.2688 20.8552 30.0902 22.0172 28.1301 23.4884C25.6449 25.3538 23.5597 27.6797 21.9935 30.3334C20.4272 32.987 19.4107 35.9164 19.0018 38.9544C18.681 41.3382 18.7392 43.7521 19.1709 46.1111C19.3317 46.99 19.4121 47.4294 19.7803 47.6638C20.1486 47.8981 20.607 47.7779 21.524 47.5376L40.695 42.5127C41.6162 42.2713 42.0768 42.1505 42.2856 41.789C42.4943 41.4275 42.3685 40.9682 42.1169 40.0497L37 21.3695Z" fill="#DA001A" fill-opacity="0.74"/>
<defs>
<linearGradient id="paint0_linear_501_4829" x1="76.2816" y1="2.14197e-06" x2="44.2609" y2="84.4756" gradientUnits="userSpaceOnUse">
<stop stop-color="#FFA3CF"/>
<stop offset="1" stop-color="#FFD5F3"/>
</linearGradient>
</defs>
</svg>
