<svg width="87" height="84" viewBox="0 0 87 84" fill="none" xmlns="http://www.w3.org/2000/svg">
<ellipse cx="43.4292" cy="42" rx="42.936" ry="42" fill="url(#paint0_linear_501_4808)"/>
<path d="M35.1487 42C39.4003 42 42.8414 38.6451 42.8414 34.5C42.8414 30.3549 39.4003 27 35.1487 27C30.8971 27 27.456 30.3549 27.456 34.5C27.456 38.6451 30.8971 42 35.1487 42ZM40.4237 44.1429H39.8536C38.4249 44.8125 36.8383 45.2143 35.1487 45.2143C33.459 45.2143 31.8793 44.8125 30.4438 44.1429H29.8737C25.5053 44.1429 21.9612 47.5982 21.9612 51.8571V53.7857C21.9612 55.5603 23.4379 57 25.2581 57H45.0393C46.8595 57 48.3362 55.5603 48.3362 53.7857V51.8571C48.3362 47.5982 44.792 44.1429 40.4237 44.1429ZM54.9299 42C58.5702 42 61.5237 39.1205 61.5237 35.5714C61.5237 32.0223 58.5702 29.1429 54.9299 29.1429C51.2896 29.1429 48.3362 32.0223 48.3362 35.5714C48.3362 39.1205 51.2896 42 54.9299 42ZM58.2268 44.1429H57.9658C57.0111 44.4643 56.0014 44.6786 54.9299 44.6786C53.8584 44.6786 52.8488 44.4643 51.8941 44.1429H51.6331C50.2319 44.1429 48.9406 44.5379 47.8073 45.1741C49.4832 46.9353 50.5341 49.2723 50.5341 51.8571V54.4286C50.5341 54.5759 50.4998 54.7165 50.4929 54.8571H62.6226C64.4428 54.8571 65.9195 53.4174 65.9195 51.6429C65.9195 47.4978 62.4784 44.1429 58.2268 44.1429Z" fill="#00AC4F"/>
<defs>
<linearGradient id="paint0_linear_501_4808" x1="76.7046" y1="2.14197e-06" x2="44.684" y2="84.4756" gradientUnits="userSpaceOnUse">
<stop stop-color="#D3FFE7"/>
<stop offset="1" stop-color="#EFFFF6"/>
</linearGradient>
</defs>
</svg>
